<?xml version="1.0" encoding="UTF-8"?>
<svg version="1.1" xmlns="http://www.w3.org/2000/svg" width="48" height="48">
<path d="M0 0 C0.66 0.33 1.32 0.66 2 1 C2 0.01 2 -0.98 2 -2 C3.32 -1.67 4.64 -1.34 6 -1 C6 0.32 6 1.64 6 3 C5.34 3 4.68 3 4 3 C4.25136719 3.88751953 4.25136719 3.88751953 4.5078125 4.79296875 C6.18184278 11.28778244 6.18184278 11.28778244 5.25 14.9375 C2.92939327 18.7665011 0.26515279 20.04062815 -3.95703125 21.390625 C-7.90867931 22.18196916 -11.72762325 22.33632743 -15.75 22.375 C-16.4829126 22.38869629 -17.2158252 22.40239258 -17.97094727 22.41650391 C-22.48285459 22.37838527 -25.41972049 21.78920823 -29 19 C-30.0625 17.0625 -30.0625 17.0625 -31 15 C-31.70125 14.360625 -32.4025 13.72125 -33.125 13.0625 C-35 11 -35 11 -35.5 8.4375 C-35 6 -35 6 -33.125 4.1875 C-31 3 -31 3 -29 3 C-28.9175 2.38125 -28.835 1.7625 -28.75 1.125 C-28 -1 -28 -1 -26.2890625 -2.05859375 C-16.52532532 -6.07405563 -8.79120337 -5.40997131 0 0 Z M-18 0 C-19.485 0.12375 -19.485 0.12375 -21 0.25 C-24.92074746 1.23018687 -26.47474064 2.8975385 -29 6 C-29.89403973 7.90946796 -29.89403973 7.90946796 -30 10 C-28.50433619 12.81091682 -26.41808561 14.9451694 -24 17 C-21.08333333 18 -21.08333333 18 -18 18 C-16.205625 18.3403125 -16.205625 18.3403125 -14.375 18.6875 C-10.77554153 19.02078319 -9.97930864 18.76896451 -7 17 C-4.6756398 16.30269194 -2.34326294 15.63087848 0 15 C1.61501873 10.96245318 0.63316582 7.90539652 -1 4 C-3.71592342 2.05852742 -3.71592342 2.05852742 -7 1 C-8.010625 0.5875 -9.02125 0.175 -10.0625 -0.25 C-13.2807249 -1.07167444 -14.837935 -0.86956787 -18 0 Z " fill="#78C5EE" transform="translate(36,24)"/>
<path d="M0 0 C0.99 0 1.98 0 3 0 C2.67 2.31 2.34 4.62 2 7 C2.78375 7.12375 3.5675 7.2475 4.375 7.375 C7 8 7 8 9 10 C9 11.32 9 12.64 9 14 C12.465 13.505 12.465 13.505 16 13 C15.67 14.32 15.34 15.64 15 17 C13.35 16.67 11.7 16.34 10 16 C9.3503125 17.2375 9.3503125 17.2375 8.6875 18.5 C7.8521875 19.7375 7.8521875 19.7375 7 21 C4 21 4 21 1.6875 19.5625 C-1.26353756 17.84678049 -3.63486125 17.3912952 -7 17 C-6.38976378 10.53149606 -6.38976378 10.53149606 -4.625 8.125 C-3 7 -3 7 0 6 C-0.2784375 4.7934375 -0.2784375 4.7934375 -0.5625 3.5625 C-0.706875 2.716875 -0.85125 1.87125 -1 1 C-0.67 0.67 -0.34 0.34 0 0 Z " fill="#51BBF8" transform="translate(31,1)"/>
<path d="M0 0 C0.99 0 1.98 0 3 0 C2.67 2.31 2.34 4.62 2 7 C2.78375 7.12375 3.5675 7.2475 4.375 7.375 C7 8 7 8 9 10 C9 11.32 9 12.64 9 14 C12.465 13.505 12.465 13.505 16 13 C15.67 14.32 15.34 15.64 15 17 C13.35 16.67 11.7 16.34 10 16 C9.3503125 17.2375 9.3503125 17.2375 8.6875 18.5 C7.8521875 19.7375 7.8521875 19.7375 7 21 C4 21 4 21 2.3125 19.5 C1.879375 19.005 1.44625 18.51 1 18 C2.98 18.33 4.96 18.66 7 19 C7.33 17.02 7.66 15.04 8 13 C7.34 13 6.68 13 6 13 C5.67 12.01 5.34 11.02 5 10 C4.2575 9.855625 3.515 9.71125 2.75 9.5625 C0.47972261 9.09812508 -1.75759479 8.58136431 -4 8 C-2.68 7.34 -1.36 6.68 0 6 C-0.2784375 4.7934375 -0.2784375 4.7934375 -0.5625 3.5625 C-0.706875 2.716875 -0.85125 1.87125 -1 1 C-0.67 0.67 -0.34 0.34 0 0 Z " fill="#7AC7F2" transform="translate(31,1)"/>
<path d="M0 0 C4.24382132 0.60626019 7.90404024 1.90404024 11 5 C11.14115161 7.67058851 11.04247107 10.32432238 11 13 C10.01 13 9.02 13 8 13 C7.95875 12.071875 7.9175 11.14375 7.875 10.1875 C7.58625 9.135625 7.2975 8.08375 7 7 C5.03384339 5.9349985 3.03273074 4.93166826 1 4 C0.125 1.8125 0.125 1.8125 0 0 Z " fill="#74C6F2" transform="translate(28,22)"/>
<path d="M0 0 C1.32 0.33 2.64 0.66 4 1 C4 2.32 4 3.64 4 5 C3.34 5 2.68 5 2 5 C2.15597656 5.61488281 2.31195313 6.22976562 2.47265625 6.86328125 C2.66730469 7.67152344 2.86195312 8.47976562 3.0625 9.3125 C3.25972656 10.11300781 3.45695312 10.91351563 3.66015625 11.73828125 C4 14 4 14 3 17 C2.67 16.01 2.34 15.02 2 14 C1.34 14 0.68 14 0 14 C-0.33 15.32 -0.66 16.64 -1 18 C-1.66 17.67 -2.32 17.34 -3 17 C-2.34 15.68 -1.68 14.36 -1 13 C-0.34 13 0.32 13 1 13 C0.855625 11.72125 0.71125 10.4425 0.5625 9.125 C0.44068359 8.04605469 0.44068359 8.04605469 0.31640625 6.9453125 C0.08707039 4.92595684 0.08707039 4.92595684 -1 3 C-0.67 2.01 -0.34 1.02 0 0 Z " fill="#7FCAF0" transform="translate(38,22)"/>
<path d="M0 0 C2.9375 0.375 2.9375 0.375 6 1 C6.33 1.66 6.66 2.32 7 3 C6.67 3.66 6.34 4.32 6 5 C6.66 5 7.32 5 8 5 C7.67 6.98 7.34 8.96 7 11 C6.34 11 5.68 11 5 11 C4.06576355 7.98968256 3.95550089 7.13349732 5 4 C4.05125 4.04125 3.1025 4.0825 2.125 4.125 C-1 4 -1 4 -3 2 C-2.01 2 -1.02 2 0 2 C0 1.34 0 0.68 0 0 Z " fill="#37B5FA" transform="translate(31,9)"/>
<path d="M0 0 C-0.99 0.33 -1.98 0.66 -3 1 C-3 1.66 -3 2.32 -3 3 C-5.64 3.33 -8.28 3.66 -11 4 C-11 3.34 -11 2.68 -11 2 C-6.89657963 -0.38570952 -4.61380251 -1.49270081 0 0 Z " fill="#83CDF0" transform="translate(23,42)"/>
<path d="M0 0 C-0.33 2.31 -0.66 4.62 -1 7 C-2.32 6.67 -3.64 6.34 -5 6 C-5 4.35 -5 2.7 -5 1 C-2 0 -2 0 0 0 Z " fill="#61BFF3" transform="translate(6,29)"/>
<path d="M0 0 C0.66 0 1.32 0 2 0 C2.625 1.875 2.625 1.875 3 4 C1 6 1 6 -2.625 6.125 C-3.73875 6.08375 -4.8525 6.0425 -6 6 C-4 4 -4 4 -1 3 C-0.67 2.01 -0.34 1.02 0 0 Z " fill="#51B5EF" transform="translate(38,36)"/>
<path d="M0 0 C0.99 0 1.98 0 3 0 C2.67 2.31 2.34 4.62 2 7 C0.4375 5.75 0.4375 5.75 -1 4 C-0.6875 1.8125 -0.6875 1.8125 0 0 Z " fill="#96D0ED" transform="translate(31,1)"/>
<path d="M0 0 C1.485 0.99 1.485 0.99 3 2 C3.40843923 4.71203652 3.13336867 7.2437142 3 10 C2.34 10 1.68 10 1 10 C0.67 6.7 0.34 3.4 0 0 Z " fill="#4CB1EC" transform="translate(36,25)"/>
<path d="M0 0 C2.375 -0.1875 2.375 -0.1875 5 0 C5.66 0.99 6.32 1.98 7 3 C5.02 3.33 3.04 3.66 1 4 C0.67 2.68 0.34 1.36 0 0 Z " fill="#5CBCF3" transform="translate(9,41)"/>
<path d="M0 0 C1.65 0 3.3 0 5 0 C4.67 1.32 4.34 2.64 4 4 C2.68 4 1.36 4 0 4 C0 2.68 0 1.36 0 0 Z " fill="#88C9EB" transform="translate(42,14)"/>
<path d="M0 0 C3.14624993 -0.26218749 4.61837017 -0.24754367 7.3125 1.5 C8.1478125 2.2425 8.1478125 2.2425 9 3 C6.36 3.66 3.72 4.32 1 5 C0.67 3.35 0.34 1.7 0 0 Z " fill="#9BD9F2" transform="translate(29,40)"/>
<path d="M0 0 C1.32 1.32 2.64 2.64 4 4 C3.01 4.33 2.02 4.66 1 5 C1.33 5.99 1.66 6.98 2 8 C1.01 7.67 0.02 7.34 -1 7 C-0.67 4.69 -0.34 2.38 0 0 Z " fill="#86CCF3" transform="translate(8,36)"/>
<path d="M0 0 C1.32 0 2.64 0 4 0 C3.67 1.32 3.34 2.64 3 4 C1.68 3.67 0.36 3.34 -1 3 C-0.67 2.01 -0.34 1.02 0 0 Z " fill="#82C0EB" transform="translate(19,14)"/>
<path d="M0 0 C0.66 0.33 1.32 0.66 2 1 C1.67 2.32 1.34 3.64 1 5 C-0.32 4.67 -1.64 4.34 -3 4 C-2.67 3.01 -2.34 2.02 -2 1 C-1.34 0.67 -0.68 0.34 0 0 Z " fill="#81C4E6" transform="translate(41,5)"/>
<path d="M0 0 C2.475 0.495 2.475 0.495 5 1 C5 1.99 5 2.98 5 4 C3.0625 3.6875 3.0625 3.6875 1 3 C0.67 2.01 0.34 1.02 0 0 Z " fill="#80C3E9" transform="translate(21,6)"/>
</svg>
